<svg width="1810" height="477" viewBox="0 0 1810 477" fill="none" xmlns="http://www.w3.org/2000/svg">
<rect x="192.125" y="191" width="95.125" height="95.125" stroke="#E8E8E8" stroke-width="3"/>
<rect x="192.125" y="287" width="95.125" height="95.125" fill="url(#paint0_linear_1515_258)" fill-opacity="0.52" stroke="#E8E8E8" stroke-width="3"/>
<rect x="951.125" y="286" width="95.125" height="95.125" fill="url(#paint1_linear_1515_258)" fill-opacity="0.72" stroke="#E8E8E8" stroke-width="3"/>
<rect x="668.125" y="96" width="95.125" height="95.125" fill="url(#paint2_linear_1515_258)" fill-opacity="0.72" stroke="#E8E8E8" stroke-width="3"/>
<rect x="382.125" y="96" width="95.125" height="95.125" stroke="#E8E8E8" stroke-width="3"/>
<rect x="667.125" y="96" width="95.125" height="95.125" stroke="#E8E8E8" stroke-width="3"/>
<rect x="952.125" y="96" width="95.125" height="95.125" stroke="#E8E8E8" stroke-width="3"/>
<rect x="477.125" y="96" width="95.125" height="95.125" stroke="#E8E8E8" stroke-width="3"/>
<rect x="762.125" y="96" width="95.125" height="95.125" stroke="#E8E8E8" stroke-width="3"/>
<rect x="1047.12" y="96" width="95.125" height="95.125" stroke="#E8E8E8" stroke-width="3"/>
<rect x="287.125" y="191" width="95.125" height="95.125" stroke="#E8E8E8" stroke-width="3"/>
<rect x="573.125" y="191" width="95.125" height="95.125" stroke="#E8E8E8" stroke-width="3"/>
<rect x="858.125" y="191" width="95.125" height="95.125" stroke="#E8E8E8" stroke-width="3"/>
<rect x="1143.12" y="191" width="95.125" height="95.125" stroke="#E8E8E8" stroke-width="3"/>
<rect x="383.125" y="191" width="95.125" height="95.125" stroke="#E8E8E8" stroke-width="3"/>
<rect x="668.125" y="191" width="95.125" height="95.125" stroke="#E8E8E8" stroke-width="3"/>
<rect x="953.125" y="191" width="95.125" height="95.125" stroke="#E8E8E8" stroke-width="3"/>
<rect x="1238.12" y="191" width="95.125" height="95.125" stroke="#E8E8E8" stroke-width="3"/>
<rect x="287.125" y="287" width="95.125" height="95.125" stroke="#E8E8E8" stroke-width="3"/>
<rect x="573.125" y="287" width="95.125" height="95.125" stroke="#E8E8E8" stroke-width="3"/>
<rect x="858.125" y="287" width="95.125" height="95.125" stroke="#E8E8E8" stroke-width="3"/>
<rect x="1143.12" y="287" width="95.125" height="95.125" stroke="#E8E8E8" stroke-width="3"/>
<rect x="383.125" y="287" width="95.125" height="95.125" stroke="#E8E8E8" stroke-width="3"/>
<rect x="668.125" y="287" width="95.125" height="95.125" stroke="#E8E8E8" stroke-width="3"/>
<rect x="953.125" y="287" width="95.125" height="95.125" stroke="#E8E8E8" stroke-width="3"/>
<rect x="1238.12" y="287" width="95.125" height="95.125" stroke="#E8E8E8" stroke-width="3"/>
<rect x="287.125" y="382" width="95.125" height="95.125" stroke="url(#paint3_linear_1515_258)" stroke-width="3"/>
<rect x="573.125" y="382" width="95.125" height="95.125" stroke="url(#paint4_linear_1515_258)" stroke-width="3"/>
<rect x="858.125" y="382" width="95.125" height="95.125" stroke="url(#paint5_linear_1515_258)" stroke-width="3"/>
<rect x="97.125" y="382" width="95.125" height="95.125" stroke="url(#paint6_linear_1515_258)" stroke-width="3"/>
<rect x="383.125" y="382" width="95.125" height="95.125" stroke="url(#paint7_linear_1515_258)" stroke-width="3"/>
<rect x="668.125" y="382" width="95.125" height="95.125" stroke="url(#paint8_linear_1515_258)" stroke-width="3"/>
<rect x="953.125" y="382" width="95.125" height="95.125" stroke="url(#paint9_linear_1515_258)" stroke-width="3"/>
<rect x="287.125" y="96" width="95.125" height="95.125" stroke="#E8E8E8" stroke-width="3"/>
<rect x="572.125" y="96" width="95.125" height="95.125" stroke="#E8E8E8" stroke-width="3"/>
<rect x="857.125" y="96" width="95.125" height="95.125" stroke="#E8E8E8" stroke-width="3"/>
<rect x="1142.12" y="96" width="95.125" height="95.125" stroke="#E8E8E8" stroke-width="3"/>
<rect x="478.125" y="191" width="95.125" height="95.125" stroke="#E8E8E8" stroke-width="3"/>
<rect x="763.125" y="191" width="95.125" height="95.125" stroke="#E8E8E8" stroke-width="3"/>
<rect x="1048.12" y="191" width="95.125" height="95.125" stroke="#E8E8E8" stroke-width="3"/>
<rect x="1333.12" y="191" width="95.125" height="95.125" stroke="#E8E8E8" stroke-width="3"/>
<rect x="478.125" y="287" width="95.125" height="95.125" stroke="#E8E8E8" stroke-width="3"/>
<rect x="763.125" y="287" width="95.125" height="95.125" stroke="#E8E8E8" stroke-width="3"/>
<rect x="1048.12" y="287" width="95.125" height="95.125" stroke="#E8E8E8" stroke-width="3"/>
<rect x="1333.12" y="287" width="95.125" height="95.125" stroke="#E8E8E8" stroke-width="3"/>
<rect x="192.125" y="382" width="95.125" height="95.125" stroke="url(#paint10_linear_1515_258)" stroke-width="3"/>
<rect x="478.125" y="382" width="95.125" height="95.125" stroke="url(#paint11_linear_1515_258)" stroke-width="3"/>
<rect x="763.125" y="382" width="95.125" height="95.125" stroke="url(#paint12_linear_1515_258)" stroke-width="3"/>
<rect x="1048.12" y="382" width="95.125" height="95.125" stroke="url(#paint13_linear_1515_258)" stroke-width="3"/>
<rect x="1143.12" y="382" width="95.125" height="95.125" stroke="url(#paint14_linear_1515_258)" stroke-width="3"/>
<rect x="286.25" y="95" width="95.125" height="95.125" transform="rotate(90 286.25 95)" stroke="url(#paint15_linear_1515_258)" stroke-width="3"/>
<rect x="97.125" y="287" width="95.125" height="95.125" transform="rotate(90 97.125 287)" stroke="url(#paint16_linear_1515_258)" stroke-width="3"/>
<rect x="1713.12" y="286" width="95.125" height="95.125" transform="rotate(-90 1713.12 286)" stroke="url(#paint17_linear_1515_258)" stroke-width="3"/>
<rect x="1619.12" y="382.125" width="95.125" height="95.125" transform="rotate(-90 1619.12 382.125)" stroke="url(#paint18_linear_1515_258)" stroke-width="3"/>
<rect x="1522.12" y="191" width="95.125" height="95.125" transform="rotate(-90 1522.12 191)" stroke="url(#paint19_linear_1515_258)" stroke-width="3"/>
<rect x="1237.12" y="96" width="95.125" height="95.125" transform="rotate(-180 1237.12 96)" stroke="url(#paint20_linear_1515_258)" stroke-width="3"/>
<rect x="952.125" y="96" width="95.125" height="95.125" transform="rotate(-180 952.125 96)" stroke="url(#paint21_linear_1515_258)" stroke-width="3"/>
<rect x="667.125" y="96" width="95.125" height="95.125" transform="rotate(-180 667.125 96)" stroke="url(#paint22_linear_1515_258)" stroke-width="3"/>
<rect x="477.125" y="96" width="95.125" height="95.125" transform="rotate(-180 477.125 96)" stroke="url(#paint23_linear_1515_258)" stroke-width="3"/>
<rect x="1332.12" y="96" width="95.125" height="95.125" transform="rotate(-180 1332.12 96)" stroke="url(#paint24_linear_1515_258)" stroke-width="3"/>
<rect x="1047.12" y="96" width="95.125" height="95.125" transform="rotate(-180 1047.12 96)" stroke="url(#paint25_linear_1515_258)" stroke-width="3"/>
<rect x="762.125" y="96" width="95.125" height="95.125" transform="rotate(-180 762.125 96)" stroke="url(#paint26_linear_1515_258)" stroke-width="3"/>
<rect x="1142.12" y="96" width="95.125" height="95.125" transform="rotate(-180 1142.12 96)" stroke="url(#paint27_linear_1515_258)" stroke-width="3"/>
<rect x="857.125" y="96" width="95.125" height="95.125" transform="rotate(-180 857.125 96)" stroke="url(#paint28_linear_1515_258)" stroke-width="3"/>
<rect x="572.125" y="96" width="95.125" height="95.125" transform="rotate(-180 572.125 96)" stroke="url(#paint29_linear_1515_258)" stroke-width="3"/>
<rect x="382.125" y="96" width="95.125" height="95.125" transform="rotate(-180 382.125 96)" stroke="url(#paint30_linear_1515_258)" stroke-width="3"/>
<rect x="97.125" y="191" width="95.125" height="95.125" stroke="#E8E8E8" stroke-width="3"/>
<rect x="97.125" y="287" width="95.125" height="95.125" stroke="#E8E8E8" stroke-width="3"/>
<rect x="1237.12" y="96" width="95.125" height="95.125" stroke="#E8E8E8" stroke-width="3"/>
<rect x="1428.12" y="191" width="95.125" height="95.125" stroke="#E8E8E8" stroke-width="3"/>
<rect x="1428.12" y="287" width="95.125" height="95.125" stroke="#E8E8E8" stroke-width="3"/>
<rect x="1427.12" y="96" width="95.125" height="95.125" stroke="#E8E8E8" stroke-width="3"/>
<rect x="1618.12" y="191" width="95.125" height="95.125" stroke="#E8E8E8" stroke-width="3"/>
<rect x="1332.12" y="96" width="95.125" height="95.125" stroke="#E8E8E8" stroke-width="3"/>
<rect x="1523.12" y="191" width="95.125" height="95.125" fill="url(#paint31_linear_1515_258)" fill-opacity="0.55" stroke="#E8E8E8" stroke-width="3"/>
<rect x="1523.12" y="287" width="95.125" height="95.125" stroke="#E8E8E8" stroke-width="3"/>
<defs>
<linearGradient id="paint0_linear_1515_258" x1="192.125" y1="382.125" x2="287.25" y2="287" gradientUnits="userSpaceOnUse">
<stop stop-color="#737373"/>
<stop offset="1"/>
</linearGradient>
<linearGradient id="paint1_linear_1515_258" x1="951.125" y1="381.125" x2="1046.25" y2="286" gradientUnits="userSpaceOnUse">
<stop stop-color="#D9D9D9"/>
<stop offset="1" stop-color="#737373"/>
</linearGradient>
<linearGradient id="paint2_linear_1515_258" x1="668.125" y1="191.125" x2="763.25" y2="96" gradientUnits="userSpaceOnUse">
<stop stop-color="#D9D9D9"/>
<stop offset="1" stop-color="#737373"/>
</linearGradient>
<linearGradient id="paint3_linear_1515_258" x1="334.688" y1="382" x2="334.688" y2="477.125" gradientUnits="userSpaceOnUse">
<stop stop-color="#E8E8E8"/>
<stop offset="0.26" stop-color="#E8E8E8" stop-opacity="0.26"/>
<stop offset="1" stop-color="#E8E8E8" stop-opacity="0"/>
</linearGradient>
<linearGradient id="paint4_linear_1515_258" x1="620.688" y1="382" x2="620.688" y2="477.125" gradientUnits="userSpaceOnUse">
<stop stop-color="#E8E8E8"/>
<stop offset="0.26" stop-color="#E8E8E8" stop-opacity="0.26"/>
<stop offset="1" stop-color="#E8E8E8" stop-opacity="0"/>
</linearGradient>
<linearGradient id="paint5_linear_1515_258" x1="905.688" y1="382" x2="905.688" y2="477.125" gradientUnits="userSpaceOnUse">
<stop stop-color="#E8E8E8"/>
<stop offset="0.26" stop-color="#E8E8E8" stop-opacity="0.26"/>
<stop offset="1" stop-color="#E8E8E8" stop-opacity="0"/>
</linearGradient>
<linearGradient id="paint6_linear_1515_258" x1="144.688" y1="382" x2="144.688" y2="477.125" gradientUnits="userSpaceOnUse">
<stop stop-color="#E8E8E8"/>
<stop offset="0.26" stop-color="#E8E8E8" stop-opacity="0.26"/>
<stop offset="1" stop-color="#E8E8E8" stop-opacity="0"/>
</linearGradient>
<linearGradient id="paint7_linear_1515_258" x1="430.688" y1="382" x2="430.688" y2="477.125" gradientUnits="userSpaceOnUse">
<stop stop-color="#E8E8E8"/>
<stop offset="0.26" stop-color="#E8E8E8" stop-opacity="0.26"/>
<stop offset="1" stop-color="#E8E8E8" stop-opacity="0"/>
</linearGradient>
<linearGradient id="paint8_linear_1515_258" x1="715.688" y1="382" x2="715.688" y2="477.125" gradientUnits="userSpaceOnUse">
<stop stop-color="#E8E8E8"/>
<stop offset="0.26" stop-color="#E8E8E8" stop-opacity="0.26"/>
<stop offset="1" stop-color="#E8E8E8" stop-opacity="0"/>
</linearGradient>
<linearGradient id="paint9_linear_1515_258" x1="1000.69" y1="382" x2="1000.69" y2="477.125" gradientUnits="userSpaceOnUse">
<stop stop-color="#E8E8E8"/>
<stop offset="0.26" stop-color="#E8E8E8" stop-opacity="0.26"/>
<stop offset="1" stop-color="#E8E8E8" stop-opacity="0"/>
</linearGradient>
<linearGradient id="paint10_linear_1515_258" x1="239.688" y1="382" x2="239.688" y2="477.125" gradientUnits="userSpaceOnUse">
<stop stop-color="#E8E8E8"/>
<stop offset="0.26" stop-color="#E8E8E8" stop-opacity="0.26"/>
<stop offset="1" stop-color="#E8E8E8" stop-opacity="0"/>
</linearGradient>
<linearGradient id="paint11_linear_1515_258" x1="525.688" y1="382" x2="525.688" y2="477.125" gradientUnits="userSpaceOnUse">
<stop stop-color="#E8E8E8"/>
<stop offset="0.26" stop-color="#E8E8E8" stop-opacity="0.26"/>
<stop offset="1" stop-color="#E8E8E8" stop-opacity="0"/>
</linearGradient>
<linearGradient id="paint12_linear_1515_258" x1="810.688" y1="382" x2="810.688" y2="477.125" gradientUnits="userSpaceOnUse">
<stop stop-color="#E8E8E8"/>
<stop offset="0.26" stop-color="#E8E8E8" stop-opacity="0.26"/>
<stop offset="1" stop-color="#E8E8E8" stop-opacity="0"/>
</linearGradient>
<linearGradient id="paint13_linear_1515_258" x1="1095.69" y1="382" x2="1095.69" y2="477.125" gradientUnits="userSpaceOnUse">
<stop stop-color="#E8E8E8"/>
<stop offset="0.26" stop-color="#E8E8E8" stop-opacity="0.26"/>
<stop offset="1" stop-color="#E8E8E8" stop-opacity="0"/>
</linearGradient>
<linearGradient id="paint14_linear_1515_258" x1="1190.69" y1="382" x2="1190.69" y2="477.125" gradientUnits="userSpaceOnUse">
<stop stop-color="#E8E8E8"/>
<stop offset="0.26" stop-color="#E8E8E8" stop-opacity="0.26"/>
<stop offset="1" stop-color="#E8E8E8" stop-opacity="0"/>
</linearGradient>
<linearGradient id="paint15_linear_1515_258" x1="333.813" y1="95" x2="333.813" y2="190.125" gradientUnits="userSpaceOnUse">
<stop stop-color="#E8E8E8"/>
<stop offset="0.26" stop-color="#E8E8E8" stop-opacity="0.26"/>
<stop offset="1" stop-color="#E8E8E8" stop-opacity="0"/>
</linearGradient>
<linearGradient id="paint16_linear_1515_258" x1="144.688" y1="287" x2="144.688" y2="382.125" gradientUnits="userSpaceOnUse">
<stop stop-color="#E8E8E8"/>
<stop offset="0.26" stop-color="#E8E8E8" stop-opacity="0.26"/>
<stop offset="1" stop-color="#E8E8E8" stop-opacity="0"/>
</linearGradient>
<linearGradient id="paint17_linear_1515_258" x1="1760.69" y1="286" x2="1760.69" y2="381.125" gradientUnits="userSpaceOnUse">
<stop stop-color="#E8E8E8"/>
<stop offset="0.26" stop-color="#E8E8E8" stop-opacity="0.26"/>
<stop offset="1" stop-color="#E8E8E8" stop-opacity="0"/>
</linearGradient>
<linearGradient id="paint18_linear_1515_258" x1="1666.69" y1="382.125" x2="1666.69" y2="477.25" gradientUnits="userSpaceOnUse">
<stop stop-color="#E8E8E8"/>
<stop offset="0.26" stop-color="#E8E8E8" stop-opacity="0.26"/>
<stop offset="1" stop-color="#E8E8E8" stop-opacity="0"/>
</linearGradient>
<linearGradient id="paint19_linear_1515_258" x1="1569.69" y1="191" x2="1569.69" y2="286.125" gradientUnits="userSpaceOnUse">
<stop stop-color="#E8E8E8"/>
<stop offset="0.26" stop-color="#E8E8E8" stop-opacity="0.26"/>
<stop offset="1" stop-color="#E8E8E8" stop-opacity="0"/>
</linearGradient>
<linearGradient id="paint20_linear_1515_258" x1="1284.69" y1="96" x2="1284.69" y2="191.125" gradientUnits="userSpaceOnUse">
<stop stop-color="#E8E8E8"/>
<stop offset="0.26" stop-color="#E8E8E8" stop-opacity="0.26"/>
<stop offset="1" stop-color="#E8E8E8" stop-opacity="0"/>
</linearGradient>
<linearGradient id="paint21_linear_1515_258" x1="999.688" y1="96" x2="999.688" y2="191.125" gradientUnits="userSpaceOnUse">
<stop stop-color="#E8E8E8"/>
<stop offset="0.26" stop-color="#E8E8E8" stop-opacity="0.26"/>
<stop offset="1" stop-color="#E8E8E8" stop-opacity="0"/>
</linearGradient>
<linearGradient id="paint22_linear_1515_258" x1="714.688" y1="96" x2="714.688" y2="191.125" gradientUnits="userSpaceOnUse">
<stop stop-color="#E8E8E8"/>
<stop offset="0.26" stop-color="#E8E8E8" stop-opacity="0.26"/>
<stop offset="1" stop-color="#E8E8E8" stop-opacity="0"/>
</linearGradient>
<linearGradient id="paint23_linear_1515_258" x1="524.688" y1="96" x2="524.688" y2="191.125" gradientUnits="userSpaceOnUse">
<stop stop-color="#E8E8E8"/>
<stop offset="0.26" stop-color="#E8E8E8" stop-opacity="0.26"/>
<stop offset="1" stop-color="#E8E8E8" stop-opacity="0"/>
</linearGradient>
<linearGradient id="paint24_linear_1515_258" x1="1379.69" y1="96" x2="1379.69" y2="191.125" gradientUnits="userSpaceOnUse">
<stop stop-color="#E8E8E8"/>
<stop offset="0.26" stop-color="#E8E8E8" stop-opacity="0.26"/>
<stop offset="1" stop-color="#E8E8E8" stop-opacity="0"/>
</linearGradient>
<linearGradient id="paint25_linear_1515_258" x1="1094.69" y1="96" x2="1094.69" y2="191.125" gradientUnits="userSpaceOnUse">
<stop stop-color="#E8E8E8"/>
<stop offset="0.26" stop-color="#E8E8E8" stop-opacity="0.26"/>
<stop offset="1" stop-color="#E8E8E8" stop-opacity="0"/>
</linearGradient>
<linearGradient id="paint26_linear_1515_258" x1="809.688" y1="96" x2="809.688" y2="191.125" gradientUnits="userSpaceOnUse">
<stop stop-color="#E8E8E8"/>
<stop offset="0.26" stop-color="#E8E8E8" stop-opacity="0.26"/>
<stop offset="1" stop-color="#E8E8E8" stop-opacity="0"/>
</linearGradient>
<linearGradient id="paint27_linear_1515_258" x1="1189.69" y1="96" x2="1189.69" y2="191.125" gradientUnits="userSpaceOnUse">
<stop stop-color="#E8E8E8"/>
<stop offset="0.26" stop-color="#E8E8E8" stop-opacity="0.26"/>
<stop offset="1" stop-color="#E8E8E8" stop-opacity="0"/>
</linearGradient>
<linearGradient id="paint28_linear_1515_258" x1="904.688" y1="96" x2="904.688" y2="191.125" gradientUnits="userSpaceOnUse">
<stop stop-color="#E8E8E8"/>
<stop offset="0.26" stop-color="#E8E8E8" stop-opacity="0.26"/>
<stop offset="1" stop-color="#E8E8E8" stop-opacity="0"/>
</linearGradient>
<linearGradient id="paint29_linear_1515_258" x1="619.688" y1="96" x2="619.688" y2="191.125" gradientUnits="userSpaceOnUse">
<stop stop-color="#E8E8E8"/>
<stop offset="0.26" stop-color="#E8E8E8" stop-opacity="0.26"/>
<stop offset="1" stop-color="#E8E8E8" stop-opacity="0"/>
</linearGradient>
<linearGradient id="paint30_linear_1515_258" x1="429.688" y1="96" x2="429.688" y2="191.125" gradientUnits="userSpaceOnUse">
<stop stop-color="#E8E8E8"/>
<stop offset="0.26" stop-color="#E8E8E8" stop-opacity="0.26"/>
<stop offset="1" stop-color="#E8E8E8" stop-opacity="0"/>
</linearGradient>
<linearGradient id="paint31_linear_1515_258" x1="1636.5" y1="239" x2="1523" y2="239" gradientUnits="userSpaceOnUse">
<stop stop-color="#D9D9D9"/>
<stop offset="1" stop-color="#737373"/>
</linearGradient>
</defs>
</svg>
